/* XPM */
static char *magick[] = {
/* columns rows colors chars-per-pixel */
"48 48 21 1",
"  c Gray0",
". c Gray15",
"X c #000032325050",
"o c #00004a4a7373",
"O c #000031319696",
"+ c #00003d3db9b9",
"@ c #000062629696",
"# c #00007a7ab9b9",
"$ c #00004949dcdc",
"% c #00005555ffff",
"& c #25255757ffff",
"* c #48487373ffff",
"= c #2525aaaaffff",
"- c #4848b8b8ffff",
"; c #6b6b8f8fffff",
": c #6b6bc6c6ffff",
"> c #8e8eababffff",
", c #a6a6cacaf0f0",
"< c #b1b1c7c7ffff",
"1 c #b1b1e2e2ffff",
"2 c None",
/* pixels */
"222222222222222222222222222222222222222222222222",
"22222222222222222222222222222222222222****222222",
"2222222222222222222222222222222222222*##;&*22222",
"2222222222222222*;;*2222222222222222;##;*o*22222",
"22222222222222**####;22222222222222;#*;@XX*22222",
"222222222222**##;;*##**2222222222,*@*>oXo*222222",
"22222222222*##***o@>*#;222222222*#@*;oX@*2222222",
"2222222222;##;;oXXXo*##22222222;*#;*oX#222222222",
"222222222*@#;#XXo*@o*##222222;**;*#XX@*222222222",
"22222222;##>@Xo**1;#,*#*2222;#**;@oo#*2222222222",
"2222222*@#;@Xo;22*##;##2222;@*;@oo@;222222222222",
"2222222*@;#oo;222*@;*o*222;#**oXo;22222222222222",
"222222;@#;oo;222*@#;oo>2,;#*;oX@*222222222222222",
"22222;@#>oo#2222##>oo*,;##;>oo@22222222222222222",
"2222*##>@o@*222;@*;o*,##*;*oo@*22222222222222222",
"222*@#;@X@;2222*o*>@###;;@Xo#2222222222222222222",
"222*@+oX@;22222*o@<**;;@XXo#*2222222222222222222",
"222*oXX@*222222*ooO*;+oXo#*222222222222222222222",
"222*#@**22222222#oXX.XX@*22222222222222222222222",
"2222***2222222222*oXXo#*222222222222222222222222",
"222222222222222222*****2222222222222222222222222",
"222222222222222222222222222222222222222222222222",
"222222222222222222222222222222222222222222222222",
"222222222222222222222222222222222222222222222222",
"2222222222222>%%%222%%22*%*2%=*2*%*2222222222222",
"2222222222222%222%222*;22;222%222;22222222222222",
"222222222222%2222*22*%*22*22*%222*22222222222222",
"22222222222**2222222,>%22*22*%222*22222222222222",
"22222222222>>2222222->=%2;22*%222*22222222222222",
"22222222222>>2222222*>2=**22*%222*22222222222222",
"22222222222**22*%=*2**2>-=22*%222*22222222222222",
"222222222222%2222%22**22%*22*%222;22222222222222",
"222222222222%%222%22**222%22>=>22%22222222222222",
"2222222222222>%%%222%%222*222>%%%222222222222222",
"222222222222222222222222222222222222222222222222",
"222222222222222222222222222222222222222222222222",
"222222222222222222222222222222222222222222222222",
"222;%%;22222222222222*%;2%%22>,22222*%->%;222222",
"22%222*222222222222222<*22%22%<222222%*2<>222222",
"22%222=222222222222222**2*%22%2222222%*2>>222222",
"22%*%222%*%==%*22*%222**2*%2*:%22%%22%*2>>2*$222",
"222%>=>22%2**2%*,>2%22**2*%22%22%2<*2%*2>>2%2222",
"2222%*=22%2**2%*222%22**2*%22%*222**2%*2**;22222",
"222222%22%2**2%22%=*22**2*%22%*2*%=*2%-2*=%22222",
"22*222%22%2**2%2%22%22**2*%22%2*%***2%*2***;2222",
"22%22;;22%2**2%2=22%22**22%22%22%***2%22**<=2222",
"22%%%%22%-%=%2%%*%%*2%=%2%=*2%%2%%==%*%2%%2%%222",
"222222222222222222222222222222222222222222222222"
};
